<svg xmlns="http://www.w3.org/2000/svg" viewBox="0 0 512 512" role="img" ><title>Peach &amp; Claw monogram</title><rect width="512" height="512" rx="72" fill="#0C090A"/><path d="M72 382V130h92c72 0 114 34 114 98 0 62-42 100-114 100h-28v54H72zm64-112h25c35 0 53-13 53-41 0-26-18-39-53-39h-25v80z" fill="#F6C2AE"/><path d="M450 176c-25-34-61-51-106-51-76 0-128 54-128 131s52 131 128 131c45 0 81-17 106-51l-48-38c-14 18-32 27-55 27-38 0-65-28-65-69s27-69 65-69c23 0 41 9 55 27l48-38z" fill="#F6C2AE"/><path d="M292 126h28l-94 260h-28z" fill="#EB716A"/></svg>
