<svg xmlns="http://www.w3.org/2000/svg" viewBox="0 0 1600 360" role="img" aria-labelledby="title">
  <title id="title">Logotype Peach &amp; Claw — lettres vectorisées</title>
  <rect width="1600" height="360" fill="#0C090A"/>
  <g transform="translate(50 50) scale(.5)">
    <path d="M350 113c-38-31-84-43-132-34C126 96 76 166 76 256s50 160 142 177c48 9 94-3 132-34" fill="none" stroke="#F6C2AE" stroke-width="48" stroke-linecap="round"/>
    <path d="M193 404V108h76c73 0 117 39 117 103 0 65-44 105-117 105h-76" fill="none" stroke="#F6C2AE" stroke-width="48" stroke-linecap="round" stroke-linejoin="round"/>
    <path d="M318 151l-49 122" fill="none" stroke="#EB716A" stroke-width="18" stroke-linecap="round"/>
  </g>
  <path d="M433.75 169.911Q433.75 179.023 429.529 185.6895Q425.308 192.356 417.77049999999997 195.974Q410.233 199.59199999999998 400.451 199.59199999999998Q392.679 199.59199999999998 387.28549999999996 197.8835Q381.892 196.175 377.403 192.825L377.671 191.753Q380.753 193.897 383.4665 195.17Q386.18 196.44299999999998 388.7595 196.97899999999998Q391.339 197.515 393.885 197.515Q399.178 197.515 403.4995 194.29899999999998Q407.821 191.083 410.434 184.85199999999998Q413.047 178.62099999999998 413.047 169.509Q413.047 158.52100000000002 409.898 150.95Q406.749 143.379 401.3555 139.4595Q395.962 135.54 389.195 135.54H384.304V224.181Q384.304 225.052 384.9405 225.4875Q385.577 225.923 386.91700000000003 226.191L392.21 227.062Q392.545 227.129 392.7125 227.2295Q392.88 227.33 392.88 227.531Q392.88 227.732 392.746 227.86599999999999Q392.612 228.0 392.277 228.0H355.159Q354.824 228.0 354.6565 227.86599999999999Q354.489 227.732 354.489 227.464Q354.489 227.129 355.226 226.995L360.586 226.124Q361.859 225.923 362.462 225.454Q363.065 224.985 363.065 224.315V138.22Q363.065 137.349 362.4955 136.813Q361.926 136.277 360.72 136.076L355.092 135.13799999999998Q354.489 135.071 354.489 134.736Q354.489 134.401 354.623 134.3005Q354.757 134.2 355.159 134.2H389.195Q402.528 134.2 412.5445 138.6555Q422.56100000000004 143.111 428.1555 151.151Q433.75 159.191 433.75 169.911Z" fill="#F6C2AE"/><path d="M489.581 193.696Q489.581 194.299 489.179 194.70100000000002Q488.777 195.103 487.973 195.103H446.366V193.82999999999998H470.486Q471.625 193.82999999999998 471.625 192.49Q471.625 180.162 468.61 174.43349999999998Q465.595 168.70499999999998 461.575 168.70499999999998Q458.292 168.70499999999998 455.8465 171.117Q453.401 173.529 452.02750000000003 178.688Q450.654 183.84699999999998 450.654 192.02100000000002Q450.654 205.823 456.3825 212.59Q462.111 219.357 471.424 219.357Q478.459 219.357 483.216 215.538Q487.973 211.719 488.375 205.22Q488.442 204.952 488.576 204.8515Q488.71 204.751 488.777 204.751Q488.911 204.751 489.07849999999996 204.885Q489.246 205.019 489.246 205.35399999999998Q488.911 212.255 485.36 217.6485Q481.809 223.042 475.913 226.191Q470.017 229.34 462.647 229.34Q454.138 229.34 447.6725 225.6215Q441.207 221.903 437.522 215.1695Q433.837 208.436 433.837 199.525Q433.837 189.877 437.522 182.6745Q441.207 175.47199999999998 447.9405 171.4855Q454.674 167.499 463.786 167.499Q471.625 167.499 477.4205 170.916Q483.216 174.333 486.3985 180.2625Q489.581 186.192 489.581 193.696Z" fill="#F6C2AE"/><path d="M524.9770000000001 221.769V221.099L524.106 221.903V177.281Q524.106 173.06 522.297 170.78199999999998Q520.488 168.504 517.272 168.504Q513.52 168.504 511.644 170.447Q509.76800000000003 172.39 509.76800000000003 174.936V180.832Q509.76800000000003 184.45 507.15500000000003 186.99599999999998Q504.54200000000003 189.542 500.38800000000003 189.542Q497.507 189.542 495.63100000000003 187.83350000000002Q493.75500000000005 186.125 493.75500000000005 182.641Q493.75500000000005 179.09 496.6360000000001 175.606Q499.51700000000005 172.122 505.27900000000005 169.8105Q511.04100000000005 167.499 519.4830000000001 167.499Q530.94 167.499 536.6015 172.189Q542.263 176.879 542.263 185.589V219.893Q542.263 222.10399999999998 543.067 223.07549999999998Q543.871 224.047 545.01 224.047Q546.149 224.047 547.1205 223.31Q548.092 222.573 548.293 220.764Q548.36 220.496 548.4605 220.3955Q548.561 220.295 548.695 220.295Q548.8290000000001 220.295 548.9295000000001 220.3955Q549.0300000000001 220.496 549.0300000000001 220.764Q549.0300000000001 222.037 547.7570000000001 224.047Q546.484 226.057 543.6030000000001 227.665Q540.722 229.273 535.898 229.273Q530.1360000000001 229.273 527.5565000000001 227.12900000000002Q524.9770000000001 224.985 524.9770000000001 221.769ZM490.271 214.868Q490.271 207.364 496.46850000000006 202.9085Q502.66600000000005 198.453 516.4680000000001 198.453Q520.354 198.453 522.7325000000001 199.2235Q525.111 199.994 527.188 201.2L526.652 201.66899999999998Q524.508 200.597 522.3975 200.061Q520.287 199.525 517.6070000000001 199.525Q513.118 199.525 510.6725 202.808Q508.22700000000003 206.091 508.22700000000003 212.322Q508.22700000000003 218.218 510.639 221.1995Q513.051 224.181 516.87 224.181Q519.349 224.181 521.7945 222.90800000000002Q524.24 221.635 525.7810000000001 219.357L526.585 219.826Q523.7040000000001 224.382 518.5785000000001 226.8275Q513.453 229.273 507.49 229.273Q499.91900000000004 229.273 495.095 225.21949999999998Q490.271 221.166 490.271 214.868Z" fill="#F6C2AE"/><path d="M601.712 183.78Q601.712 187.666 599.501 190.0445Q597.29 192.423 593.337 192.423Q589.317 192.423 587.039 189.9775Q584.761 187.53199999999998 584.761 182.909V177.549Q584.761 173.39499999999998 582.751 171.0835Q580.741 168.772 577.324 168.772Q573.706 168.772 571.0595000000001 171.4855Q568.413 174.199 566.9725000000001 179.1905Q565.532 184.182 565.532 191.15Q565.532 199.86 568.011 205.89Q570.49 211.92 574.778 215.002Q579.066 218.084 584.56 218.084Q590.59 218.084 594.8779999999999 215.5045Q599.1659999999999 212.925 600.573 207.364Q600.64 207.096 600.774 206.9955Q600.908 206.895 601.042 206.962Q601.2429999999999 206.962 601.3435 207.1295Q601.444 207.297 601.377 207.565Q600.104 214.466 596.5865 219.32350000000002Q593.069 224.181 587.6755 226.727Q582.282 229.273 575.381 229.273Q567.676 229.273 561.5455 225.9565Q555.415 222.64 551.8975 216.0405Q548.38 209.441 548.38 199.793Q548.38 190.547 552.2325000000001 183.27749999999997Q556.085 176.00799999999998 562.9190000000001 171.75349999999997Q569.753 167.499 578.664 167.499Q586.168 167.499 591.2935 169.643Q596.419 171.787 599.0654999999999 175.47199999999998Q601.712 179.15699999999998 601.712 183.78Z" fill="#F6C2AE"/><path d="M625.584 128.90699999999998V224.181Q625.584 225.052 625.9524999999999 225.6215Q626.3209999999999 226.191 627.192 226.392L630.5419999999999 226.995Q631.279 227.129 631.279 227.531Q631.279 228.0 630.6759999999999 228.0H602.2679999999999Q602.0 228.0 601.8325 227.86599999999999Q601.665 227.732 601.665 227.531Q601.665 227.33 601.866 227.16250000000002Q602.067 226.995 602.536 226.928L605.886 226.392Q606.757 226.191 607.1254999999999 225.6215Q607.4939999999999 225.052 607.4939999999999 224.181V136.143Q607.4939999999999 135.67399999999998 607.2594999999999 135.43949999999998Q607.025 135.20499999999998 606.5559999999999 135.20499999999998H602.603Q602.2679999999999 135.20499999999998 602.134 135.071Q602.0 134.937 602.0 134.736Q602.0 134.468 602.1675 134.334Q602.3349999999999 134.2 602.536 134.13299999999998L623.3059999999999 128.37099999999998Q623.976 128.237 624.2439999999999 128.17000000000002Q624.512 128.103 624.78 128.103Q625.182 128.103 625.383 128.3375Q625.584 128.572 625.584 128.90699999999998ZM624.043 182.105 623.3059999999999 181.368 625.785 179.15699999999998Q632.5519999999999 173.127 637.577 170.3465Q642.602 167.566 646.89 167.566Q652.987 167.566 656.3705 171.28449999999998Q659.754 175.003 660.692 183.043L665.65 223.846Q665.784 224.918 666.1859999999999 225.58800000000002Q666.588 226.258 667.526 226.459L670.608 227.062Q671.01 227.062 671.144 227.19600000000003Q671.278 227.33 671.278 227.531Q671.278 227.732 671.144 227.86599999999999Q671.01 228.0 670.742 228.0H641.731Q641.1279999999999 228.0 641.1279999999999 227.531Q641.1279999999999 227.196 641.865 226.995L645.3489999999999 226.392Q646.4209999999999 226.191 646.8564999999999 225.52100000000002Q647.2919999999999 224.851 647.158 223.846L642.937 184.852Q642.334 179.961 640.6924999999999 177.7165Q639.0509999999999 175.47199999999998 635.634 175.47199999999998Q633.356 175.47199999999998 631.145 176.6445Q628.934 177.817 626.4549999999999 180.028Z" fill="#F6C2AE"/><path d="M799.87632 229.386Q809.64132 229.386 816.0219599999999 225.858Q822.4025999999999 222.33 825.0674999999999 215.4Q827.7324 208.47 826.5076799999999 198.264Q825.1619999999999 187.05 819.64824 176.277Q814.1344799999999 165.504 805.5387599999999 156.873Q795.72084 146.982 783.41064 140.997Q771.1004399999999 135.012 757.8074399999999 135.012Q744.7664399999999 135.012 735.8909999999998 139.0125Q727.0155599999999 143.013 722.8701599999999 149.94299999999998Q718.72476 156.873 719.80584 165.882Q720.5996399999999 172.497 723.6891599999999 175.9305Q726.7786799999999 179.364 731.4406799999999 179.364Q734.84268 179.364 736.7477999999999 177.1275Q738.6529199999999 174.891 738.2371199999999 171.426Q737.94228 168.969 737.1409199999999 167.016Q736.3395599999999 165.063 735.4273199999999 163.236Q734.5150799999999 161.409 733.6910399999999 159.267Q732.867 157.125 732.51924 154.227Q731.8388399999999 148.55700000000002 734.40294 144.46200000000002Q736.9670399999999 140.36700000000002 742.7781599999998 138.1305Q748.5892799999999 135.894 757.5982799999999 135.894Q770.82828 135.894 782.93814 141.7845Q795.0479999999999 147.675 804.58368 157.314Q813.31296 166.008 818.81916 176.71800000000002Q824.3253599999999 187.428 825.6332399999999 198.327Q826.6916399999999 207.147 824.9616599999999 212.94299999999998Q823.2316799999999 218.739 819.2248799999999 221.574Q815.2180799999999 224.409 809.4220799999999 224.409Q804.50808 224.409 800.2102199999999 222.456Q795.9123599999999 220.503 791.1545999999998 216.02999999999997Q786.3968399999999 211.557 780.0716399999999 203.997Q775.28112 198.201 771.83376 192.3105Q768.3864 186.42000000000002 766.22928 179.994Q764.0721599999999 173.56799999999998 763.18764 166.197Q762.33336 159.078 764.2031999999999 154.4475Q766.07304 149.817 769.28604 149.817Q771.9950399999999 149.817 773.6721 153.8175Q775.34916 157.81799999999998 776.10516 164.118Q776.89896 170.733 775.68306 175.3005Q774.4671599999999 179.868 771.8009999999999 182.325Q769.1348399999999 184.78199999999998 765.4480799999999 185.034L765.7202399999999 185.727Q774.3134399999999 185.412 780.2795399999999 182.892Q786.2456399999999 180.372 789.1310399999999 175.80450000000002Q792.0164399999999 171.237 791.2679999999999 165.0Q790.67832 160.086 787.8344999999999 156.3375Q784.9906799999999 152.589 780.4811399999999 150.447Q775.9716 148.305 770.4276 148.305Q762.3635999999999 148.305 756.9556799999999 151.8015Q751.5477599999999 155.298 749.1386399999999 161.472Q746.72952 167.64600000000002 747.6972 175.71Q748.33224 181.002 750.0785999999999 186.8925Q751.8249599999999 192.78300000000002 754.96362 198.9885Q758.10228 205.194 763.0162799999999 211.494Q768.3536399999999 218.172 774.27564 222.1095Q780.19764 226.047 786.63498 227.7165Q793.07232 229.386 799.87632 229.386ZM790.5069599999999 216.408 790.827 216.975Q801.4866 212.88 806.5366799999999 206.139Q811.5867599999999 199.398 810.6115199999999 191.27100000000002Q809.9537999999999 185.79 806.8730999999999 182.95499999999998Q803.7923999999999 180.12 800.0754 180.12Q795.9803999999999 180.12 793.63302 182.6085Q791.28564 185.097 791.6787599999999 188.373Q791.9509199999999 190.641 792.8001599999999 192.46800000000002Q793.6493999999999 194.29500000000002 794.5288799999998 196.37400000000002Q795.4083599999999 198.453 795.7712399999999 201.477Q796.0056 203.43 795.7082399999999 206.202Q795.4108799999999 208.974 794.19624 211.7145Q792.9816 214.455 790.5069599999999 216.408ZM751.57044 186.987 751.43184 186.357Q741.8306399999999 186.672 735.4373999999999 189.57Q729.0441599999999 192.468 726.1600199999999 197.571Q723.2758799999999 202.674 724.0999199999999 209.541Q725.1809999999999 218.55 731.75316 223.96800000000002Q738.3253199999999 229.386 749.03532 229.386Q755.7763199999999 229.386 760.42446 228.22050000000002Q765.0726 227.055 768.3624599999999 225.0705Q771.6523199999999 223.086 774.12948 220.629L773.4591599999999 219.243Q771.5137199999999 220.881 768.64974 221.952Q765.78576 223.023 761.56476 223.023Q753.6267599999999 223.023 748.61574 218.0145Q743.6047199999999 213.006 742.5160799999999 203.934Q742.002 199.65 742.9066799999999 195.9015Q743.8113599999999 192.153 746.0088 189.7275Q748.20624 187.302 751.57044 186.987Z" fill="#EB716A"/><path d="M873.329 229.332Q859.01 229.332 851.018 219.675Q843.026 210.018 843.026 189.927Q843.026 169.725 851.018 160.12349999999998Q859.01 150.522 873.329 150.522Q881.3209999999999 150.522 887.6479999999999 153.63Q893.9749999999999 156.738 897.6379999999999 163.287Q901.3009999999999 169.836 901.3009999999999 180.159H886.76Q886.76 171.279 883.0415 167.00549999999998Q879.323 162.732 873.329 162.732Q865.448 162.732 861.563 169.2255Q857.678 175.719 857.678 187.152V192.702Q857.678 204.135 861.674 210.6285Q865.67 217.122 873.7729999999999 217.122Q879.9889999999999 217.122 883.7075 212.8485Q887.4259999999999 208.575 887.4259999999999 199.806H901.3009999999999Q901.3009999999999 209.796 897.6379999999999 216.345Q893.9749999999999 222.894 887.7034999999998 226.113Q881.4319999999999 229.332 873.329 229.332Z" fill="#F6C2AE"/><path d="M908.958 228.0V147.747H922.2779999999999V228.0Z" fill="#F6C2AE"/><path d="M942.478 229.332Q940.4799999999999 229.332 937.9269999999999 228.666Q935.3739999999999 228.0 933.0985 226.224Q930.823 224.448 929.3245 221.22899999999998Q927.8259999999999 218.01 927.8259999999999 212.904Q927.8259999999999 205.023 931.5445 200.583Q935.2629999999999 196.143 941.8119999999999 194.3115Q948.3609999999999 192.48 956.7969999999999 192.48V186.375Q956.7969999999999 183.378 955.6869999999999 181.269Q954.5769999999999 179.16 950.6919999999999 179.16Q946.5849999999999 179.16 945.1419999999999 181.15800000000002Q943.699 183.156 943.699 185.265V186.93H930.712Q930.6009999999999 186.375 930.6009999999999 185.82Q930.6009999999999 185.265 930.6009999999999 184.488Q930.6009999999999 177.162 935.9844999999999 172.72199999999998Q941.3679999999999 168.28199999999998 950.3589999999999 168.28199999999998Q960.5709999999999 168.28199999999998 965.3995 172.77749999999997Q970.228 177.273 970.228 185.487V214.236Q970.228 216.345 971.2269999999999 217.233Q972.2259999999999 218.121 973.3359999999999 218.121H975.9999999999999V227.556Q974.89 228.111 973.0029999999999 228.7215Q971.116 229.332 968.1189999999999 229.332Q964.1229999999999 229.332 961.459 227.223Q958.795 225.114 957.7959999999999 221.673H957.241Q954.799 225.114 951.5799999999999 227.223Q948.3609999999999 229.332 942.478 229.332ZM948.0279999999999 218.232Q951.247 218.232 953.134 216.45600000000002Q955.021 214.68 955.9089999999999 211.794Q956.7969999999999 208.90800000000002 956.7969999999999 205.46699999999998V202.137Q952.9119999999999 202.137 949.4155 202.96949999999998Q945.919 203.802 943.699 205.8555Q941.4789999999999 207.909 941.4789999999999 211.683Q941.4789999999999 214.68 943.0329999999999 216.45600000000002Q944.587 218.232 948.0279999999999 218.232Z" fill="#F6C2AE"/><path d="M989.2069999999999 228.0 974.9989999999999 169.614H988.319L993.8689999999999 193.59Q994.757 197.475 995.2565 201.74849999999998Q995.756 206.022 995.978 208.9635Q996.1999999999999 211.905 996.1999999999999 211.905H996.6439999999999Q996.6439999999999 211.905 996.9214999999999 209.0745Q997.199 206.244 997.7539999999999 202.026Q998.309 197.808 999.0859999999999 193.701L1004.0809999999999 169.614H1017.401L1022.396 193.812Q1022.8399999999999 195.921 1023.2839999999999 198.9735Q1023.728 202.026 1024.061 204.9675Q1024.394 207.909 1024.616 209.90699999999998Q1024.838 211.905 1024.838 211.905H1025.282Q1025.282 211.905 1025.5594999999998 210.018Q1025.837 208.131 1026.2255 205.3005Q1026.614 202.47 1027.1689999999999 199.362Q1027.724 196.254 1028.168 193.812L1033.274 169.614H1045.595L1031.4979999999998 228.0H1018.0669999999999L1012.295 200.139Q1011.7399999999999 197.142 1011.3515 193.812Q1010.963 190.482 1010.7964999999999 188.09550000000002Q1010.6299999999999 185.709 1010.6299999999999 185.709H1009.9639999999999Q1009.9639999999999 185.709 1009.7974999999999 188.04000000000002Q1009.631 190.371 1009.298 193.70100000000002Q1008.9649999999999 197.031 1008.299 200.028L1002.6379999999999 228.0Z" fill="#F6C2AE"/>
</svg>
